<svg width="97" height="96" viewBox="0 0 97 96" fill="none" xmlns="http://www.w3.org/2000/svg">
<g clip-path="url(#clip0_193_352)">
<path d="M71.5732 17.88C71.2532 17.88 70.9332 17.8 70.6532 17.64C62.9732 13.68 56.3332 12 48.3732 12C40.4532 12 32.9332 13.88 26.0932 17.64C25.1332 18.16 23.9332 17.8 23.3732 16.84C22.8532 15.88 23.2132 14.64 24.1732 14.12C31.6132 10.08 39.7732 8 48.3732 8C56.8932 8 64.3332 9.88 72.4932 14.08C73.4932 14.6 73.8532 15.8 73.3332 16.76C72.9732 17.48 72.2932 17.88 71.5732 17.88ZM14.3332 38.88C13.9332 38.88 13.5332 38.76 13.1732 38.52C12.2532 37.88 12.0532 36.64 12.6932 35.72C16.6532 30.12 21.6932 25.72 27.6932 22.64C40.2532 16.16 56.3332 16.12 68.9332 22.6C74.9332 25.68 79.9732 30.04 83.9332 35.6C84.5732 36.48 84.3732 37.76 83.4532 38.4C82.5332 39.04 81.2932 38.84 80.6532 37.92C77.0532 32.88 72.4932 28.92 67.0932 26.16C55.6132 20.28 40.9332 20.28 29.4932 26.2C24.0532 29 19.4932 33 15.8932 38.04C15.5732 38.6 14.9732 38.88 14.3332 38.88ZM39.3332 87.16C38.8132 87.16 38.2932 86.96 37.9332 86.56C34.4532 83.08 32.5732 80.84 29.8932 76C27.1332 71.08 25.6932 65.08 25.6932 58.64C25.6932 46.76 35.8532 37.08 48.3332 37.08C60.8132 37.08 70.9732 46.76 70.9732 58.64C70.9732 59.76 70.0932 60.64 68.9732 60.64C67.8532 60.64 66.9732 59.76 66.9732 58.64C66.9732 48.96 58.6132 41.08 48.3332 41.08C38.0532 41.08 29.6932 48.96 29.6932 58.64C29.6932 64.4 30.9732 69.72 33.4132 74.04C35.9732 78.64 37.7332 80.6 40.8132 83.72C41.5732 84.52 41.5732 85.76 40.8132 86.56C40.3732 86.96 39.8532 87.16 39.3332 87.16ZM68.0132 79.76C63.2532 79.76 59.0532 78.56 55.6132 76.2C49.6532 72.16 46.0932 65.6 46.0932 58.64C46.0932 57.52 46.9732 56.64 48.0932 56.64C49.2132 56.64 50.0932 57.52 50.0932 58.64C50.0932 64.28 52.9732 69.6 57.8532 72.88C60.6932 74.8 64.0132 75.72 68.0132 75.72C68.9732 75.72 70.5732 75.6 72.1732 75.32C73.2532 75.12 74.2932 75.84 74.4932 76.96C74.6932 78.04 73.9732 79.08 72.8532 79.28C70.5732 79.72 68.5732 79.76 68.0132 79.76ZM59.9732 88C59.8132 88 59.6132 87.96 59.4532 87.92C53.0932 86.16 48.9332 83.8 44.5732 79.52C38.9732 73.96 35.8932 66.56 35.8932 58.64C35.8932 52.16 41.4132 46.88 48.2132 46.88C55.0132 46.88 60.5332 52.16 60.5332 58.64C60.5332 62.92 64.2532 66.4 68.8532 66.4C73.4532 66.4 77.1732 62.92 77.1732 58.64C77.1732 43.56 64.1732 31.32 48.1732 31.32C36.8132 31.32 26.4132 37.64 21.7332 47.44C20.1732 50.68 19.3732 54.48 19.3732 58.64C19.3732 61.76 19.6532 66.68 22.0532 73.08C22.4532 74.12 21.9332 75.28 20.8932 75.64C19.8532 76.04 18.6932 75.48 18.3332 74.48C16.3732 69.24 15.4132 64.04 15.4132 58.64C15.4132 53.84 16.3332 49.48 18.1332 45.68C23.4532 34.52 35.2532 27.28 48.1732 27.28C66.3732 27.28 81.1732 41.32 81.1732 58.6C81.1732 65.08 75.6532 70.36 68.8532 70.36C62.0532 70.36 56.5332 65.08 56.5332 58.6C56.5332 54.32 52.8132 50.84 48.2132 50.84C43.6132 50.84 39.8932 54.32 39.8932 58.6C39.8932 65.44 42.5332 71.84 47.3732 76.64C51.1732 80.4 54.8132 82.48 60.4532 84.04C61.5332 84.32 62.1332 85.44 61.8532 86.48C61.6532 87.4 60.8132 88 59.9732 88Z" fill="#4555FF"/>
</g>
<defs>
<clipPath id="clip0_193_352">
<rect width="96" height="96" fill="white" transform="translate(0.333252)"/>
</clipPath>
</defs>
</svg>
