<svg width="85" height="72" viewBox="0 0 85 72" fill="none" xmlns="http://www.w3.org/2000/svg">
<path d="M69.2667 42.8L77.8668 51.2L59.4667 69.6C58.7334 70.3333 57.8834 70.9167 56.9167 71.35C55.9501 71.7833 54.9334 72 53.8667 72H52.6667C51.5334 72 50.5834 71.6167 49.8167 70.85C49.0501 70.0833 48.6667 69.1333 48.6667 68V66.8C48.6667 65.7333 48.8667 64.7167 49.2668 63.75C49.6667 62.7833 50.2334 61.9333 50.9667 61.2L69.2667 42.8ZM80.7667 48.4L72.2667 39.9L75.0667 37.1C75.8668 36.3 76.8334 35.9 77.9668 35.9C79.1001 35.9 80.0334 36.3 80.7667 37.1L83.5667 40C84.3001 40.8 84.6667 41.75 84.6667 42.85C84.6667 43.95 84.3001 44.8667 83.5667 45.6L80.7667 48.4ZM8.66675 64C6.46675 64 4.58341 63.2167 3.01675 61.65C1.45008 60.0833 0.666748 58.2 0.666748 56V8C0.666748 5.8 1.45008 3.91667 3.01675 2.35C4.58341 0.783333 6.46675 0 8.66675 0H29.3667C30.4334 0 31.4501 0.2 32.4167 0.6C33.3834 1 34.2334 1.56667 34.9667 2.3L40.6667 8H72.6667C74.8668 8 76.7501 8.78333 78.3167 10.35C79.8834 11.9167 80.6667 13.8 80.6667 16V27.7C78.6001 27.7 76.5667 27.95 74.5667 28.45C72.5667 28.95 70.8334 29.9333 69.3668 31.4L36.9667 64H8.66675Z" fill="#4555FF"/>
</svg>
