<svg width="400" height="343" viewBox="0 0 400 343" fill="none" xmlns="http://www.w3.org/2000/svg">
<path d="M326.667 203.81L367.619 243.81L280 331.429C276.508 334.921 272.46 337.698 267.857 339.762C263.254 341.825 258.413 342.857 253.333 342.857H247.619C242.222 342.857 237.698 341.032 234.048 337.381C230.397 333.73 228.571 329.206 228.571 323.81V318.095C228.571 313.016 229.524 308.175 231.429 303.571C233.333 298.968 236.032 294.921 239.524 291.429L326.667 203.81ZM381.429 230.476L340.952 190L354.286 176.667C358.095 172.857 362.698 170.952 368.095 170.952C373.492 170.952 377.937 172.857 381.429 176.667L394.762 190.476C398.254 194.286 400 198.81 400 204.048C400 209.286 398.254 213.651 394.762 217.143L381.429 230.476ZM38.0952 304.762C27.619 304.762 18.6508 301.032 11.1905 293.571C3.73016 286.111 0 277.143 0 266.667V38.0952C0 27.619 3.73016 18.6508 11.1905 11.1905C18.6508 3.73016 27.619 0 38.0952 0H136.667C141.746 0 146.587 0.952381 151.19 2.85714C155.794 4.7619 159.841 7.46032 163.333 10.9524L190.476 38.0952H342.857C353.333 38.0952 362.302 41.8254 369.762 49.2857C377.222 56.746 380.952 65.7143 380.952 76.1905V131.905C371.111 131.905 361.429 133.095 351.905 135.476C342.381 137.857 334.127 142.54 327.143 149.524L172.857 304.762H38.0952Z" fill="#0021F5"/>
</svg>
